<svg xmlns="http://www.w3.org/2000/svg" viewBox="0 0 448 512"><path d="M224 32C100.5 32 0 132.5 0 256s100.5 224 224 224 224-100.5 224-224S347.5 32 224 32zm148.1 103.3c26.6 32.6 42.8 74 43.2 119.2-6.3-1.3-69.6-14.2-133.2-6.2-5.2-12.7-10.1-23.8-16.8-37.6 70.7-28.8 102.8-69.9 106.8-75.4zm-21.3-22.1c-3.4 4.9-32.2 43.6-100.3 69.1-31.4-57.6-66.1-104.9-71.4-112 60.7-14.6 124.7 1.1 171.7 42.9zM142.7 83.1c5 6.9 39.2 54.3 70.9 110.7-89.5 23.8-168.3 23.4-176.9 23.3 12.4-59.4 52.4-108.7 106-134zm-110 173.2c0-2 0-3.9.1-5.8 8.4.2 101.1 1.4 196.6-27.2 5.5 10.7 10.7 21.6 15.5 32.5-69.2 19.5-132 75.4-163.1 128.5-30.5-34-49.1-78.9-49.1-128zm73.9 150.9c20-40.9 74.2-93.6 151.4-119.9 26.9 69.8 38 128.3 40.8 145.1-61.6 26.2-135.6 19-192.2-25.2zm224.3 7.7c-2-11.6-12.1-67.6-37.2-136.4 60-9.6 112.6 6.1 119.2 8.2-8.5 53.2-39.1 99.2-82 128.2z"/></svg>