<svg xmlns="http://www.w3.org/2000/svg" viewBox="0 0 512 512"><path d="M22.552 343.628c-95.983-307.426 308.79-448.434 455.039-229.523 11.926 17.87 25.558 49.144 26.409 65.059C402.905-46.448-23.735 36.761 22.552 343.628zM333.464 87.859c-11.644 1.117-5.396 3.63-3.976 3.63 89.736 24.292 161.733 88.793 156.906 183.171-4.827 94.657-86.764 147.709-164.574 168.93 244.369-4 236.412-348.288 11.644-355.731zm152.93 297.094C349.233 575.383 5.797 434.934 65.716 193.685c-9.37 30.715-18.458 52.215-19.309 84.326C38.74 530.149 410.003 579.292 490.37 384.953c2.556-6.423 1.134-6.981-3.976 0zm-69.441-125.372c0 79.021-64.746 143.242-144.543 143.242-79.798 0-144.544-64.221-144.544-143.242s64.746-143.242 144.544-143.242c79.797 0 144.543 64.222 144.543 143.242zm-35.214-34.902c9.94-15.078-1.703-53.332-36.349-75.949-34.361-22.617-78.377-20.942-88.6-5.864-9.938 14.799 11.359 5.305 50.264 19.546 64.179 23.454 64.747 77.344 74.685 62.267z"/></svg>