<svg xmlns="http://www.w3.org/2000/svg" viewBox="0 0 448 512"><path d="M268.1 212.3c24.3-12.4 39.7-34.5 36.1-71.1-4.7-50.2-45.9-67-100.5-71.7V0h-42.5v67.6c-11 0-22.3.3-33.6.6V0H85.2v69.5c-15.6.5-33.8.2-85.2 0v45.2c33.5-.6 51.1-2.7 55.1 18.7v190.3c-2.6 17.1-16.2 14.6-46.6 14.1L0 388.2c77.4 0 85.2.3 85.2.3V448h42.5v-58.7c11.6.3 22.9.3 33.6.3V448h42.5v-59.5c71.1-3.9 118.7-21.8 125-88.8 5-53.8-20.4-77.7-60.7-87.4zm-139.6-94.6c24 0 99-7.4 99 42.5 0 47.7-75 42.2-99 42.2v-84.7zm0 220.3v-93.2c28.7 0 116.5-8 116.5 46.6 0 52.7-87.8 46.6-116.5 46.6z"/></svg>