<svg xmlns="http://www.w3.org/2000/svg" viewBox="0 0 320 512"><path d="M258.686 255.471c-21.915-16.894-50.273-27.727-75.293-37.284-40.794-15.583-65.564-26.504-65.564-46.732 0-23.133 25.531-31.342 47.395-31.342 39.372 0 75.434 29.562 75.779 29.849a12.002 12.002 0 0 0 18.25-3.5l28.359-52.438a12 12 0 0 0-1.866-13.984c-1.356-1.424-32.155-33.118-90.865-41.489V12c0-6.627-5.373-12-12-12h-46.017c-6.627 0-12 5.373-12 12v48.423C64.587 73.95 24.802 117.979 24.802 172.526c0 33.925 13.304 60.91 40.673 82.497 22.614 17.836 51.586 29.194 77.148 39.214 38.891 15.246 62.504 25.791 62.504 43.631 0 23.373-23.181 34.018-44.719 34.018-44.796 0-85.513-36.476-86.086-36.995a12.002 12.002 0 0 0-17.702 1.681l-36.386 48.693a12.001 12.001 0 0 0 .688 15.205c1.592 1.771 37.958 41.478 103.943 52.68V500c0 6.627 5.373 12 12 12h46.017c6.627 0 12-5.373 12-12v-46.98c29.625-5.615 54.787-19.218 73.233-39.699 19.371-21.506 30.039-49.633 30.039-79.198-.001-32.452-12.911-58.179-39.468-78.652z"/></svg>